<?xml version="1.0" encoding="utf-8"?>
<!-- Generator: Adobe Illustrator 27.8.1, SVG Export Plug-In . SVG Version: 6.00 Build 0)  -->
<svg version="1.1" xmlns="http://www.w3.org/2000/svg" xmlns:xlink="http://www.w3.org/1999/xlink" x="0px" y="0px"
	 viewBox="0 0 1024 1024" style="enable-background:new 0 0 1024 1024;" xml:space="preserve">
<style type="text/css">
	.st0{fill:#A67C52;}
	.st1{fill:#C69C6D;}
	.st2{fill:#8C6239;}
	.st3{fill:url(#SVGID_1_);}
</style>
<g>
	<g>
		<path class="st0" d="M512,650.07v57.28v240.36c0,0,81.38,0,108.3,0c26.92,0,35-28.52,35-28.52l38.56-211.84l10.16-57.28H512z"/>
		<path class="st1" d="M319.98,650.07l10.16,57.28L368.7,919.2c0,0,8.08,28.52,35,28.52c26.92,0,108.3,0,108.3,0V707.36v-57.28
			H319.98z"/>
		<path class="st2" d="M512,536.55c0,0,196.03,0,213.7,0c17.66,0,15.77,18.68,15.77,18.68l-13.84,81.52c0,0-3.95,13.32-15.77,13.32
			c-11.83,0-199.86,0-199.86,0V536.55z"/>
		<path class="st0" d="M512,536.55c0,0-196.03,0-213.7,0c-17.66,0-15.77,18.68-15.77,18.68l13.84,81.52c0,0,3.95,13.32,15.77,13.32
			s199.86,0,199.86,0V536.55z"/>
	</g>
</g>
<g>
	<linearGradient id="SVGID_1_" gradientUnits="userSpaceOnUse" x1="95.7021" y1="278.4655" x2="928.2979" y2="278.4655">
		<stop  offset="0" style="stop-color:#00DC00"/>
		<stop  offset="0.0679" style="stop-color:#00DC14"/>
		<stop  offset="0.4169" style="stop-color:#00DC77"/>
		<stop  offset="0.6987" style="stop-color:#00DBC0"/>
		<stop  offset="0.8993" style="stop-color:#00DBEE"/>
		<stop  offset="1" style="stop-color:#00DBFF"/>
	</linearGradient>
	<path class="st3" d="M418.71,474.97c0,23.12-18.74,41.86-41.86,41.86c-23.12,0-41.86-18.74-41.86-41.86
		c0-15.87,8.84-29.68,21.86-36.78V324.33c0-4.73-0.72-10.99-4.13-13.99c-3.83-3.36-11.49-3.66-14.76-3.27l-1.66,0.3l-1.31-0.08
		h-97.43c-23.75,0-42.99-11.17-54.17-31.44c-7.69-13.94-8.94-27.7-9.05-29.22l-0.06-0.77v-20.27c-44.8-9.27-78.59-49.04-78.59-96.55
		h30c0,37.82,30.77,68.59,68.59,68.59s68.59-30.77,68.59-68.59h30c0,47.51-33.78,87.28-78.59,96.55v18.36
		c0.27,1.87,1.33,7.86,4.59,13.36c4.09,6.9,9.85,9.97,18.69,9.97h96.22c6.74-0.71,28.25-1.65,44.89,12.6
		c8.29,7.11,18.18,20.58,18.18,44.43v113.87C409.88,445.29,418.71,459.1,418.71,474.97z M610.59,90.1h-30
		c0,37.82-30.77,68.59-68.59,68.59s-68.59-30.77-68.59-68.59h-30c0,47.51,33.78,87.28,78.59,96.55v251.55
		c-13.02,7.1-21.86,20.91-21.86,36.78c0,23.12,18.74,41.86,41.86,41.86s41.86-18.74,41.86-41.86c0-15.87-8.84-29.68-21.86-36.78
		V186.64C576.8,177.37,610.59,137.6,610.59,90.1z M512,140.09c27.61,0,50-22.38,50-50s-22.38-50-50-50s-50,22.38-50,50
		S484.39,140.09,512,140.09z M928.3,180.98h-30c0,37.82-30.77,68.59-68.59,68.59s-68.59-30.77-68.59-68.59h-30
		c0,47.4,33.63,87.1,78.29,96.48v39.38l0.2,1.41c0.25,1.75,0.54,11.81-4.17,17.23c-3.1,3.57-8.87,5.38-17.15,5.38H685.06
		c-5.92-0.39-27.74-0.65-44.5,14.47c-8.27,7.46-18.12,21.41-18.12,45.56v37.3c-13.02,7.1-21.86,20.91-21.86,36.78
		c0,23.12,18.74,41.86,41.86,41.86c23.12,0,41.86-18.74,41.86-41.86c0-15.87-8.84-29.68-21.86-36.78v-37.3
		c0-7.51,1.62-12.81,4.8-15.76c4.4-4.08,12.39-4.53,15.09-4.37l0.67,0.09H788.3c25.41,0,39.78-10.43,47.37-19.17
		c15.33-17.67,14.42-40.6,13.75-47.39v-36.71C894.37,268.43,928.3,228.6,928.3,180.98z M829.71,230.98c27.61,0,50-22.38,50-50
		s-22.38-50-50-50s-50,22.38-50,50S802.1,230.98,829.71,230.98z M194.29,179.04c27.61,0,50-22.38,50-50s-22.38-50-50-50
		s-50,22.38-50,50S166.68,179.04,194.29,179.04z"/>
</g>
</svg>
